<svg width="40" height="40" viewBox="0 0 40 40" fill="none" xmlns="http://www.w3.org/2000/svg">
<path d="M19.9999 39.9999C31.0456 39.9999 39.9999 31.0456 39.9999 19.9999C39.9999 8.95424 31.0456 -6.10352e-05 19.9999 -6.10352e-05C8.95423 -6.10352e-05 -7.62939e-05 8.95424 -7.62939e-05 19.9999C-7.62939e-05 31.0456 8.95423 39.9999 19.9999 39.9999Z" fill="white" fill-opacity="0.1"/>
<path d="M18.8423 28.0462C14.9124 27.4706 11.8964 24.0828 11.8964 19.989C11.8964 15.8953 14.9124 12.5074 18.8423 11.9321V7.69232C12.5855 8.29078 7.69231 13.5677 7.69231 19.989C7.69231 26.4104 12.5855 31.687 18.8423 32.2857V28.0462Z" fill="white"/>
<path d="M26.9983 11.9999L26.8891 12.371V23.1392L26.9983 23.2482L31.9968 20.2936L26.9983 11.9999Z" fill="white"/>
<path d="M26.9984 11.9999L21.9999 20.2936L26.9984 23.2482V18.0217V11.9999Z" fill="white"/>
<path d="M26.9985 24.8742L26.937 24.9492V28.7851L26.9985 28.9648L32 21.9211L26.9985 24.8742Z" fill="white"/>
<path d="M26.9984 28.9648V24.8742L21.9999 21.9211L26.9984 28.9648Z" fill="white"/>
<path d="M26.9984 23.2481L31.9968 20.2936L26.9984 18.0216V23.2481Z" fill="white"/>
<path d="M21.9999 20.2936L26.9983 23.2482V18.0216L21.9999 20.2936Z" fill="white"/>
</svg>
