<svg width="154" height="120" viewBox="0 0 154 120" fill="none" xmlns="http://www.w3.org/2000/svg">
<rect width="154" height="120" fill="#5C59A5"/>
<g id="Design" clip-path="url(#clip0_1_31)">
<rect width="1440" height="6023" transform="translate(-1286 -1528)" fill="white"/>
<g id="Why CRAPPO" clip-path="url(#clip1_1_31)">
<rect width="1440" height="865" transform="translate(-1286 -678)" fill="#0D0D2B"/>
<path id="u" d="M240 0C240 31.826 227.357 62.3484 204.853 84.8528C182.348 107.357 151.826 120 120 120C88.174 120 57.6516 107.357 35.1472 84.8528C12.6428 62.3485 4.80559e-06 31.826 0 1.52588e-05L48 7.62939e-06C48 19.0956 55.5857 37.4091 69.0883 50.9117C82.5909 64.4143 100.904 72 120 72C139.096 72 157.409 64.4143 170.912 50.9117C184.414 37.4091 192 19.0956 192 0H240Z" fill="url(#paint0_linear_1_31)"/>
<g id="Content">
<g id="Text">
</g>
</g>
</g>
</g>
<defs>
<linearGradient id="paint0_linear_1_31" x1="8.61478" y1="22.5256" x2="143.022" y2="100.126" gradientUnits="userSpaceOnUse">
<stop offset="0.0625" stop-color="white" stop-opacity="0.08"/>
<stop offset="1" stop-color="white" stop-opacity="0"/>
</linearGradient>
<clipPath id="clip0_1_31">
<rect width="1440" height="6023" fill="white" transform="translate(-1286 -1528)"/>
</clipPath>
<clipPath id="clip1_1_31">
<rect width="1440" height="865" fill="white" transform="translate(-1286 -678)"/>
</clipPath>
</defs>
</svg>
