<svg width="160" height="48" viewBox="0 0 160 48" fill="none" xmlns="http://www.w3.org/2000/svg">
<path d="M3.14788 35C2.93454 35 2.74254 34.9253 2.57188 34.776C2.42254 34.6053 2.34788 34.4133 2.34788 34.2V13.432C2.34788 13.1973 2.42254 13.0053 2.57188 12.856C2.72121 12.6853 2.91321 12.6 3.14788 12.6H13.0359C15.7452 12.6 17.7612 13.1547 19.0839 14.264C20.4065 15.3733 21.0679 16.952 21.0679 19C21.0679 20.024 20.7905 20.9093 20.2359 21.656C19.7025 22.4027 19.1052 22.9467 18.4439 23.288C19.3185 23.672 20.0545 24.312 20.6519 25.208C21.2492 26.0827 21.5479 27.0747 21.5479 28.184C21.5479 30.3387 20.8332 32.0133 19.4039 33.208C17.9959 34.4027 15.9692 35 13.3239 35H3.14788ZM12.3639 21.464C13.1532 21.464 13.7612 21.2507 14.1879 20.824C14.6145 20.3973 14.8279 19.8427 14.8279 19.16C14.8279 18.4987 14.6145 17.9653 14.1879 17.56C13.7825 17.1333 13.1745 16.92 12.3639 16.92H8.36388V21.464H12.3639ZM12.6519 30.68C13.4839 30.68 14.1239 30.4453 14.5719 29.976C15.0412 29.4853 15.2759 28.888 15.2759 28.184C15.2759 27.4587 15.0412 26.8613 14.5719 26.392C14.1025 25.9013 13.4625 25.656 12.6519 25.656H8.36388V30.68H12.6519ZM25.4209 16.056C25.1862 16.056 24.9942 15.9813 24.8449 15.832C24.6955 15.6613 24.6209 15.4587 24.6209 15.224V12.248C24.6209 12.0133 24.6955 11.8213 24.8449 11.672C25.0155 11.5013 25.2075 11.416 25.4209 11.416H29.4209C29.6555 11.416 29.8475 11.5013 29.9969 11.672C30.1675 11.8213 30.2529 12.0133 30.2529 12.248V15.224C30.2529 15.4587 30.1675 15.6613 29.9969 15.832C29.8475 15.9813 29.6555 16.056 29.4209 16.056H25.4209ZM25.4209 35C25.2075 35 25.0155 34.9253 24.8449 34.776C24.6955 34.6053 24.6209 34.4133 24.6209 34.2V19.16C24.6209 18.9253 24.6955 18.7333 24.8449 18.584C25.0155 18.4347 25.2075 18.36 25.4209 18.36H29.4209C29.6555 18.36 29.8475 18.4347 29.9969 18.584C30.1675 18.7333 30.2529 18.9253 30.2529 19.16V34.2C30.2529 34.4347 30.1675 34.6267 29.9969 34.776C29.8475 34.9253 29.6555 35 29.4209 35H25.4209ZM42.6381 35C38.1155 35 35.8541 32.8773 35.8541 28.632V22.712H33.3261C33.1128 22.712 32.9208 22.6373 32.7501 22.488C32.6008 22.3173 32.5261 22.1253 32.5261 21.912V19.16C32.5261 18.9253 32.6008 18.7333 32.7501 18.584C32.9208 18.4347 33.1128 18.36 33.3261 18.36H35.8541V13.08C35.8541 12.8453 35.9288 12.6533 36.0781 12.504C36.2488 12.3547 36.4408 12.28 36.6541 12.28H40.5901C40.8248 12.28 41.0168 12.3547 41.1661 12.504C41.3155 12.6533 41.3901 12.8453 41.3901 13.08V18.36H45.3901C45.6248 18.36 45.8168 18.4347 45.9661 18.584C46.1368 18.7333 46.2221 18.9253 46.2221 19.16V21.912C46.2221 22.1467 46.1368 22.3387 45.9661 22.488C45.8168 22.6373 45.6248 22.712 45.3901 22.712H41.3901V28.152C41.3901 28.8987 41.5288 29.464 41.8061 29.848C42.0835 30.232 42.5315 30.424 43.1501 30.424H45.6781C45.9128 30.424 46.1048 30.5093 46.2541 30.68C46.4035 30.8293 46.4781 31.0213 46.4781 31.256V34.2C46.4781 34.4133 46.4035 34.6053 46.2541 34.776C46.1048 34.9253 45.9128 35 45.6781 35H42.6381ZM56.8024 35.32C54.3704 35.32 52.397 34.68 50.8824 33.4C49.389 32.0987 48.589 30.296 48.4824 27.992L48.4504 26.712L48.4824 25.4C48.5677 23.096 49.3677 21.2933 50.8824 19.992C52.397 18.6907 54.3704 18.04 56.8024 18.04C58.6584 18.04 60.2157 18.3707 61.4744 19.032C62.733 19.6933 63.6717 20.4827 64.2904 21.4C64.909 22.296 65.2397 23.1173 65.2824 23.864C65.3037 24.0987 65.229 24.3013 65.0584 24.472C64.8877 24.6213 64.685 24.696 64.4504 24.696H60.1624C59.9277 24.696 59.7464 24.6427 59.6184 24.536C59.4904 24.4293 59.373 24.2587 59.2664 24.024C59.0317 23.4267 58.7224 22.9893 58.3384 22.712C57.9757 22.4347 57.5064 22.296 56.9304 22.296C55.2877 22.296 54.4344 23.384 54.3704 25.56L54.3384 26.776L54.3704 27.832C54.3917 28.9413 54.6157 29.7627 55.0424 30.296C55.469 30.808 56.0984 31.064 56.9304 31.064C57.549 31.064 58.029 30.936 58.3704 30.68C58.733 30.4027 59.0317 29.9547 59.2664 29.336C59.373 29.1013 59.4904 28.9307 59.6184 28.824C59.7464 28.7173 59.9277 28.664 60.1624 28.664H64.4504C64.6637 28.664 64.8557 28.7387 65.0264 28.888C65.197 29.0373 65.2824 29.2187 65.2824 29.432C65.2824 30.0933 64.9837 30.8933 64.3864 31.832C63.8104 32.7493 62.8824 33.56 61.6024 34.264C60.3224 34.968 58.7224 35.32 56.8024 35.32ZM76.0271 35.32C73.3391 35.32 71.2698 34.7013 69.8191 33.464C68.3898 32.2053 67.6111 30.424 67.4831 28.12C67.4618 27.8427 67.4511 27.3627 67.4511 26.68C67.4511 25.9973 67.4618 25.5173 67.4831 25.24C67.6111 22.9787 68.4111 21.2187 69.8831 19.96C71.3765 18.68 73.4245 18.04 76.0271 18.04C78.6298 18.04 80.6671 18.68 82.1391 19.96C83.6325 21.2187 84.4431 22.9787 84.5711 25.24C84.6138 25.7947 84.6351 26.2747 84.6351 26.68C84.6351 27.0853 84.6138 27.5653 84.5711 28.12C84.4431 30.424 83.6538 32.2053 82.2031 33.464C80.7738 34.7013 78.7151 35.32 76.0271 35.32ZM76.0271 31.288C76.9018 31.288 77.5525 31.0213 77.9791 30.488C78.4058 29.9333 78.6511 29.0907 78.7151 27.96C78.7365 27.7467 78.7471 27.32 78.7471 26.68C78.7471 26.04 78.7365 25.6133 78.7151 25.4C78.6511 24.2907 78.4058 23.4587 77.9791 22.904C77.5525 22.3493 76.9018 22.072 76.0271 22.072C75.1525 22.072 74.5018 22.3493 74.0751 22.904C73.6485 23.4587 73.4031 24.2907 73.3391 25.4L73.3071 26.68L73.3391 27.96C73.4031 29.0907 73.6485 29.9333 74.0751 30.488C74.5018 31.0213 75.1525 31.288 76.0271 31.288ZM88.4834 16.056C88.2487 16.056 88.0567 15.9813 87.9074 15.832C87.758 15.6613 87.6834 15.4587 87.6834 15.224V12.248C87.6834 12.0133 87.758 11.8213 87.9074 11.672C88.078 11.5013 88.27 11.416 88.4834 11.416H92.4834C92.718 11.416 92.91 11.5013 93.0594 11.672C93.23 11.8213 93.3154 12.0133 93.3154 12.248V15.224C93.3154 15.4587 93.23 15.6613 93.0594 15.832C92.91 15.9813 92.718 16.056 92.4834 16.056H88.4834ZM88.4834 35C88.27 35 88.078 34.9253 87.9074 34.776C87.758 34.6053 87.6834 34.4133 87.6834 34.2V19.16C87.6834 18.9253 87.758 18.7333 87.9074 18.584C88.078 18.4347 88.27 18.36 88.4834 18.36H92.4834C92.718 18.36 92.91 18.4347 93.0594 18.584C93.23 18.7333 93.3154 18.9253 93.3154 19.16V34.2C93.3154 34.4347 93.23 34.6267 93.0594 34.776C92.91 34.9253 92.718 35 92.4834 35H88.4834ZM97.7646 35C97.5513 35 97.3593 34.9253 97.1886 34.776C97.0393 34.6053 96.9646 34.4133 96.9646 34.2V19.16C96.9646 18.9253 97.0393 18.7333 97.1886 18.584C97.3593 18.4347 97.5513 18.36 97.7646 18.36H101.701C101.935 18.36 102.127 18.4347 102.277 18.584C102.426 18.7333 102.501 18.9253 102.501 19.16V20.376C103.077 19.672 103.813 19.1067 104.709 18.68C105.626 18.2533 106.671 18.04 107.845 18.04C109.061 18.04 110.138 18.3173 111.077 18.872C112.037 19.4267 112.783 20.248 113.317 21.336C113.871 22.424 114.149 23.736 114.149 25.272V34.2C114.149 34.4133 114.074 34.6053 113.925 34.776C113.775 34.9253 113.583 35 113.349 35H109.093C108.858 35 108.655 34.9253 108.485 34.776C108.335 34.6267 108.261 34.4347 108.261 34.2V25.464C108.261 24.504 108.026 23.768 107.557 23.256C107.109 22.744 106.447 22.488 105.573 22.488C104.719 22.488 104.047 22.7547 103.557 23.288C103.066 23.8 102.821 24.5253 102.821 25.464V34.2C102.821 34.4133 102.746 34.6053 102.597 34.776C102.447 34.9253 102.255 35 102.021 35H97.7646Z" fill="white"/>
<path opacity="0.7" d="M126.267 31C126.147 31 126.045 30.958 125.961 30.874C125.877 30.79 125.835 30.688 125.835 30.568V18.85C125.835 18.718 125.877 18.61 125.961 18.526C126.045 18.442 126.147 18.4 126.267 18.4H131.487C132.459 18.4 133.251 18.55 133.863 18.85C134.475 19.138 134.925 19.54 135.213 20.056C135.513 20.572 135.663 21.172 135.663 21.856C135.663 22.312 135.579 22.714 135.411 23.062C135.255 23.398 135.057 23.674 134.817 23.89C134.589 24.106 134.361 24.274 134.133 24.394C134.601 24.61 135.015 24.97 135.375 25.474C135.735 25.978 135.915 26.578 135.915 27.274C135.915 27.994 135.753 28.636 135.429 29.2C135.105 29.764 134.625 30.208 133.989 30.532C133.353 30.844 132.567 31 131.631 31H126.267ZM128.337 29.092H131.343C131.991 29.092 132.483 28.918 132.819 28.57C133.155 28.21 133.323 27.778 133.323 27.274C133.323 26.746 133.149 26.308 132.801 25.96C132.465 25.612 131.979 25.438 131.343 25.438H128.337V29.092ZM128.337 23.566H131.163C131.799 23.566 132.273 23.416 132.585 23.116C132.909 22.804 133.071 22.402 133.071 21.91C133.071 21.406 132.909 21.016 132.585 20.74C132.273 20.452 131.799 20.308 131.163 20.308H128.337V23.566ZM141.203 31C141.083 31 140.981 30.958 140.897 30.874C140.813 30.79 140.771 30.688 140.771 30.568V20.614H137.441C137.321 20.614 137.219 20.572 137.135 20.488C137.051 20.404 137.009 20.302 137.009 20.182V18.85C137.009 18.718 137.051 18.61 137.135 18.526C137.219 18.442 137.321 18.4 137.441 18.4H146.621C146.753 18.4 146.861 18.442 146.945 18.526C147.029 18.61 147.071 18.718 147.071 18.85V20.182C147.071 20.302 147.029 20.404 146.945 20.488C146.861 20.572 146.753 20.614 146.621 20.614H143.309V30.568C143.309 30.688 143.267 30.79 143.183 30.874C143.099 30.958 142.991 31 142.859 31H141.203ZM153.529 31.18C152.413 31.18 151.465 30.988 150.685 30.604C149.917 30.208 149.329 29.65 148.921 28.93C148.513 28.198 148.285 27.322 148.237 26.302C148.225 25.81 148.219 25.282 148.219 24.718C148.219 24.154 148.225 23.614 148.237 23.098C148.285 22.09 148.513 21.22 148.921 20.488C149.341 19.756 149.935 19.198 150.703 18.814C151.483 18.418 152.425 18.22 153.529 18.22C154.345 18.22 155.077 18.328 155.725 18.544C156.373 18.76 156.925 19.06 157.381 19.444C157.837 19.816 158.191 20.254 158.443 20.758C158.695 21.262 158.827 21.808 158.839 22.396C158.851 22.504 158.815 22.594 158.731 22.666C158.659 22.738 158.569 22.774 158.461 22.774H156.751C156.619 22.774 156.511 22.744 156.427 22.684C156.343 22.612 156.283 22.498 156.247 22.342C156.055 21.55 155.725 21.01 155.257 20.722C154.789 20.434 154.207 20.29 153.511 20.29C152.707 20.29 152.065 20.518 151.585 20.974C151.105 21.418 150.847 22.156 150.811 23.188C150.775 24.172 150.775 25.18 150.811 26.212C150.847 27.244 151.105 27.988 151.585 28.444C152.065 28.888 152.707 29.11 153.511 29.11C154.207 29.11 154.789 28.966 155.257 28.678C155.725 28.378 156.055 27.838 156.247 27.058C156.283 26.89 156.343 26.776 156.427 26.716C156.511 26.656 156.619 26.626 156.751 26.626H158.461C158.569 26.626 158.659 26.662 158.731 26.734C158.815 26.806 158.851 26.896 158.839 27.004C158.827 27.592 158.695 28.138 158.443 28.642C158.191 29.146 157.837 29.59 157.381 29.974C156.925 30.346 156.373 30.64 155.725 30.856C155.077 31.072 154.345 31.18 153.529 31.18Z" fill="white"/>
</svg>
