<svg width="204" height="48" viewBox="0 0 204 48" fill="none" xmlns="http://www.w3.org/2000/svg">
<path d="M3.33538 35C3.12204 35 2.93004 34.9253 2.75938 34.776C2.61004 34.6053 2.53538 34.4133 2.53538 34.2V13.432C2.53538 13.1973 2.61004 13.0053 2.75938 12.856C2.90871 12.6853 3.10071 12.6 3.33538 12.6H18.4394C18.674 12.6 18.866 12.6853 19.0154 12.856C19.186 13.0053 19.2714 13.1973 19.2714 13.432V16.6C19.2714 16.8347 19.186 17.0267 19.0154 17.176C18.866 17.3253 18.674 17.4 18.4394 17.4H8.32738V21.464H17.7354C17.97 21.464 18.162 21.5493 18.3114 21.72C18.482 21.8693 18.5674 22.0613 18.5674 22.296V25.208C18.5674 25.4427 18.482 25.6453 18.3114 25.816C18.162 25.9653 17.97 26.04 17.7354 26.04H8.32738V30.2H18.6954C18.93 30.2 19.122 30.2853 19.2714 30.456C19.442 30.6053 19.5274 30.7973 19.5274 31.032V34.2C19.5274 34.4347 19.442 34.6267 19.2714 34.776C19.122 34.9253 18.93 35 18.6954 35H3.33538ZM31.3256 35C26.803 35 24.5416 32.8773 24.5416 28.632V22.712H22.0136C21.8003 22.712 21.6083 22.6373 21.4376 22.488C21.2883 22.3173 21.2136 22.1253 21.2136 21.912V19.16C21.2136 18.9253 21.2883 18.7333 21.4376 18.584C21.6083 18.4347 21.8003 18.36 22.0136 18.36H24.5416V13.08C24.5416 12.8453 24.6163 12.6533 24.7656 12.504C24.9363 12.3547 25.1283 12.28 25.3416 12.28H29.2776C29.5123 12.28 29.7043 12.3547 29.8536 12.504C30.003 12.6533 30.0776 12.8453 30.0776 13.08V18.36H34.0776C34.3123 18.36 34.5043 18.4347 34.6536 18.584C34.8243 18.7333 34.9096 18.9253 34.9096 19.16V21.912C34.9096 22.1467 34.8243 22.3387 34.6536 22.488C34.5043 22.6373 34.3123 22.712 34.0776 22.712H30.0776V28.152C30.0776 28.8987 30.2163 29.464 30.4936 29.848C30.771 30.232 31.219 30.424 31.8376 30.424H34.3656C34.6003 30.424 34.7923 30.5093 34.9416 30.68C35.091 30.8293 35.1656 31.0213 35.1656 31.256V34.2C35.1656 34.4133 35.091 34.6053 34.9416 34.776C34.7923 34.9253 34.6003 35 34.3656 35H31.3256ZM38.5779 35C38.3432 35 38.1405 34.9253 37.9699 34.776C37.8205 34.6267 37.7459 34.4347 37.7459 34.2V13.08C37.7459 12.8453 37.8205 12.6533 37.9699 12.504C38.1405 12.3547 38.3432 12.28 38.5779 12.28H42.8979C43.1325 12.28 43.3245 12.3547 43.4739 12.504C43.6445 12.6533 43.7299 12.8453 43.7299 13.08V20.216C44.9672 18.7653 46.6419 18.04 48.7539 18.04C49.9699 18.04 51.0685 18.3173 52.0499 18.872C53.0312 19.4267 53.7992 20.248 54.3539 21.336C54.9085 22.424 55.1859 23.736 55.1859 25.272V34.2C55.1859 34.4347 55.1005 34.6267 54.9299 34.776C54.7805 34.9253 54.5885 35 54.3539 35H50.0019C49.7885 35 49.5965 34.9253 49.4259 34.776C49.2765 34.6053 49.2019 34.4133 49.2019 34.2V25.464C49.2019 24.5253 48.9672 23.8 48.4979 23.288C48.0285 22.7547 47.3565 22.488 46.4819 22.488C45.6285 22.488 44.9565 22.7547 44.4659 23.288C43.9752 23.8 43.7299 24.5253 43.7299 25.464V34.2C43.7299 34.4347 43.6445 34.6267 43.4739 34.776C43.3245 34.9253 43.1325 35 42.8979 35H38.5779ZM66.4914 35.32C63.8887 35.32 61.8407 34.6267 60.3474 33.24C58.854 31.832 58.086 29.7947 58.0434 27.128V26.136C58.1287 23.5973 58.918 21.6133 60.4114 20.184C61.9047 18.7547 63.9207 18.04 66.4594 18.04C68.294 18.04 69.8407 18.4133 71.0994 19.16C72.3794 19.8853 73.3287 20.8987 73.9474 22.2C74.5874 23.48 74.9074 24.9413 74.9074 26.584V27.384C74.9074 27.6187 74.822 27.8213 74.6514 27.992C74.502 28.1413 74.31 28.216 74.0754 28.216H63.9314V28.408C63.9527 29.368 64.1767 30.1467 64.6034 30.744C65.03 31.32 65.638 31.608 66.4274 31.608C66.9394 31.608 67.3447 31.512 67.6434 31.32C67.9634 31.1067 68.262 30.84 68.5394 30.52C68.7314 30.3067 68.8807 30.1787 68.9874 30.136C69.1154 30.072 69.3074 30.04 69.5634 30.04H73.7554C73.9474 30.04 74.1074 30.104 74.2354 30.232C74.3847 30.3387 74.4594 30.4773 74.4594 30.648C74.4594 31.2027 74.1394 31.8533 73.4994 32.6C72.8807 33.3467 71.9634 33.9867 70.7474 34.52C69.5527 35.0533 68.134 35.32 66.4914 35.32ZM69.0194 24.952V24.888C69.0194 23.864 68.7954 23.0747 68.3474 22.52C67.8994 21.944 67.27 21.656 66.4594 21.656C65.6487 21.656 65.0194 21.944 64.5714 22.52C64.1447 23.0747 63.9314 23.864 63.9314 24.888V24.952H69.0194ZM78.5771 35C78.3638 35 78.1718 34.9253 78.0011 34.776C77.8518 34.6053 77.7771 34.4133 77.7771 34.2V19.192C77.7771 18.9573 77.8518 18.7653 78.0011 18.616C78.1505 18.4453 78.3425 18.36 78.5771 18.36H82.4811C82.7158 18.36 82.9078 18.4453 83.0571 18.616C83.2278 18.7653 83.3131 18.9573 83.3131 19.192V20.408C83.9105 19.7467 84.6038 19.2453 85.3931 18.904C86.2038 18.5413 87.0998 18.36 88.0811 18.36H89.5211C89.7558 18.36 89.9478 18.4347 90.0971 18.584C90.2465 18.7333 90.3211 18.9253 90.3211 19.16V22.648C90.3211 22.8613 90.2465 23.0533 90.0971 23.224C89.9478 23.3733 89.7558 23.448 89.5211 23.448H86.2891C85.4358 23.448 84.7745 23.6827 84.3051 24.152C83.8571 24.6213 83.6331 25.2827 83.6331 26.136V34.2C83.6331 34.4347 83.5478 34.6267 83.3771 34.776C83.2278 34.9253 83.0358 35 82.8011 35H78.5771ZM100.21 35.32C97.6075 35.32 95.5595 34.6267 94.0661 33.24C92.5728 31.832 91.8048 29.7947 91.7621 27.128V26.136C91.8475 23.5973 92.6368 21.6133 94.1301 20.184C95.6235 18.7547 97.6395 18.04 100.178 18.04C102.013 18.04 103.559 18.4133 104.818 19.16C106.098 19.8853 107.047 20.8987 107.666 22.2C108.306 23.48 108.626 24.9413 108.626 26.584V27.384C108.626 27.6187 108.541 27.8213 108.37 27.992C108.221 28.1413 108.029 28.216 107.794 28.216H97.6501V28.408C97.6715 29.368 97.8955 30.1467 98.3221 30.744C98.7488 31.32 99.3568 31.608 100.146 31.608C100.658 31.608 101.063 31.512 101.362 31.32C101.682 31.1067 101.981 30.84 102.258 30.52C102.45 30.3067 102.599 30.1787 102.706 30.136C102.834 30.072 103.026 30.04 103.282 30.04H107.474C107.666 30.04 107.826 30.104 107.954 30.232C108.103 30.3387 108.178 30.4773 108.178 30.648C108.178 31.2027 107.858 31.8533 107.218 32.6C106.599 33.3467 105.682 33.9867 104.466 34.52C103.271 35.0533 101.853 35.32 100.21 35.32ZM102.738 24.952V24.888C102.738 23.864 102.514 23.0747 102.066 22.52C101.618 21.944 100.989 21.656 100.178 21.656C99.3675 21.656 98.7381 21.944 98.2901 22.52C97.8635 23.0747 97.6501 23.864 97.6501 24.888V24.952H102.738ZM117.608 35.32C115.731 35.32 114.216 34.6907 113.064 33.432C111.912 32.1733 111.336 30.392 111.336 28.088V19.16C111.336 18.9253 111.411 18.7333 111.56 18.584C111.731 18.4347 111.923 18.36 112.136 18.36H116.392C116.627 18.36 116.819 18.4347 116.968 18.584C117.139 18.7333 117.224 18.9253 117.224 19.16V27.896C117.224 29.88 118.109 30.872 119.88 30.872C120.733 30.872 121.395 30.616 121.864 30.104C122.355 29.5707 122.6 28.8347 122.6 27.896V19.16C122.6 18.9253 122.675 18.7333 122.824 18.584C122.995 18.4347 123.197 18.36 123.432 18.36H127.656C127.891 18.36 128.083 18.4347 128.232 18.584C128.381 18.7333 128.456 18.9253 128.456 19.16V34.2C128.456 34.4133 128.381 34.6053 128.232 34.776C128.083 34.9253 127.891 35 127.656 35H123.752C123.517 35 123.315 34.9253 123.144 34.776C122.995 34.6267 122.92 34.4347 122.92 34.2V32.984C121.811 34.5413 120.04 35.32 117.608 35.32ZM132.89 35C132.676 35 132.484 34.9253 132.314 34.776C132.164 34.6053 132.09 34.4133 132.09 34.2V19.16C132.09 18.9253 132.164 18.7333 132.314 18.584C132.484 18.4347 132.676 18.36 132.89 18.36H136.602C136.836 18.36 137.028 18.4347 137.178 18.584C137.327 18.7333 137.402 18.9253 137.402 19.16V20.248C137.914 19.6293 138.575 19.1067 139.386 18.68C140.196 18.2533 141.114 18.04 142.138 18.04C144.484 18.04 146.095 18.9573 146.97 20.792C147.482 19.9813 148.196 19.32 149.114 18.808C150.031 18.296 151.012 18.04 152.058 18.04C153.807 18.04 155.226 18.6373 156.314 19.832C157.423 21.0053 157.978 22.7653 157.978 25.112V34.2C157.978 34.4133 157.903 34.6053 157.754 34.776C157.604 34.9253 157.412 35 157.178 35H153.242C153.007 35 152.804 34.9253 152.634 34.776C152.484 34.6267 152.41 34.4347 152.41 34.2V25.336C152.41 24.3547 152.196 23.64 151.77 23.192C151.364 22.7227 150.81 22.488 150.106 22.488C149.444 22.488 148.9 22.7227 148.474 23.192C148.068 23.64 147.866 24.3547 147.866 25.336V34.2C147.866 34.4133 147.791 34.6053 147.642 34.776C147.492 34.9253 147.3 35 147.066 35H143.13C142.895 35 142.692 34.9253 142.522 34.776C142.372 34.6267 142.298 34.4347 142.298 34.2V25.336C142.298 24.3547 142.084 23.64 141.658 23.192C141.231 22.7227 140.676 22.488 139.994 22.488C139.332 22.488 138.788 22.7227 138.362 23.192C137.935 23.64 137.722 24.344 137.722 25.304V34.2C137.722 34.4133 137.647 34.6053 137.498 34.776C137.348 34.9253 137.156 35 136.922 35H132.89Z" fill="#0D0D2B"/>
<path d="M170.196 31C170.076 31 169.974 30.958 169.89 30.874C169.806 30.79 169.764 30.688 169.764 30.568V18.85C169.764 18.718 169.8 18.61 169.872 18.526C169.956 18.442 170.064 18.4 170.196 18.4H178.134C178.266 18.4 178.374 18.442 178.458 18.526C178.542 18.61 178.584 18.718 178.584 18.85V20.056C178.584 20.188 178.542 20.296 178.458 20.38C178.374 20.452 178.266 20.488 178.134 20.488H172.23V23.638H177.738C177.87 23.638 177.978 23.68 178.062 23.764C178.146 23.848 178.188 23.956 178.188 24.088V25.222C178.188 25.354 178.146 25.462 178.062 25.546C177.978 25.618 177.87 25.654 177.738 25.654H172.23V28.912H178.278C178.41 28.912 178.518 28.954 178.602 29.038C178.686 29.11 178.728 29.212 178.728 29.344V30.568C178.728 30.7 178.686 30.808 178.602 30.892C178.518 30.964 178.41 31 178.278 31H170.196ZM184.183 31C184.063 31 183.961 30.958 183.877 30.874C183.793 30.79 183.751 30.688 183.751 30.568V20.65H180.421C180.301 20.65 180.199 20.608 180.115 20.524C180.031 20.44 179.989 20.332 179.989 20.2V18.85C179.989 18.718 180.025 18.61 180.097 18.526C180.181 18.442 180.289 18.4 180.421 18.4H189.619C189.751 18.4 189.859 18.442 189.943 18.526C190.027 18.61 190.069 18.718 190.069 18.85V20.2C190.069 20.332 190.027 20.44 189.943 20.524C189.859 20.608 189.751 20.65 189.619 20.65H186.307V30.568C186.307 30.688 186.265 30.79 186.181 30.874C186.109 30.958 186.007 31 185.875 31H184.183ZM192.327 31C192.207 31 192.105 30.958 192.021 30.874C191.937 30.79 191.895 30.688 191.895 30.568V18.85C191.895 18.718 191.931 18.61 192.003 18.526C192.087 18.442 192.195 18.4 192.327 18.4H193.983C194.115 18.4 194.223 18.442 194.307 18.526C194.391 18.61 194.433 18.718 194.433 18.85V23.476H199.689V18.85C199.689 18.718 199.731 18.61 199.815 18.526C199.899 18.442 200.001 18.4 200.121 18.4H201.795C201.927 18.4 202.029 18.442 202.101 18.526C202.185 18.61 202.227 18.718 202.227 18.85V30.568C202.227 30.688 202.185 30.79 202.101 30.874C202.029 30.958 201.927 31 201.795 31H200.121C200.001 31 199.899 30.958 199.815 30.874C199.731 30.79 199.689 30.688 199.689 30.568V25.762H194.433V30.568C194.433 30.688 194.391 30.79 194.307 30.874C194.223 30.958 194.115 31 193.983 31H192.327Z" fill="#BDBDBD"/>
</svg>
