<svg width="172" height="48" viewBox="0 0 172 48" fill="none" xmlns="http://www.w3.org/2000/svg">
<path d="M3.31975 35C3.10642 35 2.91442 34.9253 2.74375 34.776C2.59442 34.6053 2.51975 34.4133 2.51975 34.2V13.4C2.51975 13.1653 2.59442 12.9733 2.74375 12.824C2.91442 12.6747 3.10642 12.6 3.31975 12.6H7.79975C8.03442 12.6 8.22642 12.6747 8.37575 12.824C8.52508 12.9733 8.59975 13.1653 8.59975 13.4V29.976H18.1998C18.4344 29.976 18.6264 30.0613 18.7758 30.232C18.9464 30.3813 19.0318 30.5733 19.0318 30.808V34.2C19.0318 34.4347 18.9464 34.6267 18.7758 34.776C18.6264 34.9253 18.4344 35 18.1998 35H3.31975ZM22.1553 16.056C21.9206 16.056 21.7286 15.9813 21.5793 15.832C21.4299 15.6613 21.3553 15.4587 21.3553 15.224V12.248C21.3553 12.0133 21.4299 11.8213 21.5793 11.672C21.7499 11.5013 21.9419 11.416 22.1553 11.416H26.1553C26.3899 11.416 26.5819 11.5013 26.7313 11.672C26.9019 11.8213 26.9873 12.0133 26.9873 12.248V15.224C26.9873 15.4587 26.9019 15.6613 26.7313 15.832C26.5819 15.9813 26.3899 16.056 26.1553 16.056H22.1553ZM22.1553 35C21.9419 35 21.7499 34.9253 21.5793 34.776C21.4299 34.6053 21.3553 34.4133 21.3553 34.2V19.16C21.3553 18.9253 21.4299 18.7333 21.5793 18.584C21.7499 18.4347 21.9419 18.36 22.1553 18.36H26.1553C26.3899 18.36 26.5819 18.4347 26.7313 18.584C26.9019 18.7333 26.9873 18.9253 26.9873 19.16V34.2C26.9873 34.4347 26.9019 34.6267 26.7313 34.776C26.5819 34.9253 26.3899 35 26.1553 35H22.1553ZM39.3725 35C34.8498 35 32.5885 32.8773 32.5885 28.632V22.712H30.0605C29.8472 22.712 29.6552 22.6373 29.4845 22.488C29.3352 22.3173 29.2605 22.1253 29.2605 21.912V19.16C29.2605 18.9253 29.3352 18.7333 29.4845 18.584C29.6552 18.4347 29.8472 18.36 30.0605 18.36H32.5885V13.08C32.5885 12.8453 32.6632 12.6533 32.8125 12.504C32.9832 12.3547 33.1752 12.28 33.3885 12.28H37.3245C37.5592 12.28 37.7512 12.3547 37.9005 12.504C38.0498 12.6533 38.1245 12.8453 38.1245 13.08V18.36H42.1245C42.3592 18.36 42.5512 18.4347 42.7005 18.584C42.8712 18.7333 42.9565 18.9253 42.9565 19.16V21.912C42.9565 22.1467 42.8712 22.3387 42.7005 22.488C42.5512 22.6373 42.3592 22.712 42.1245 22.712H38.1245V28.152C38.1245 28.8987 38.2632 29.464 38.5405 29.848C38.8178 30.232 39.2658 30.424 39.8845 30.424H42.4125C42.6472 30.424 42.8392 30.5093 42.9885 30.68C43.1378 30.8293 43.2125 31.0213 43.2125 31.256V34.2C43.2125 34.4133 43.1378 34.6053 42.9885 34.776C42.8392 34.9253 42.6472 35 42.4125 35H39.3725ZM53.6008 35.32C50.9981 35.32 48.9501 34.6267 47.4568 33.24C45.9634 31.832 45.1954 29.7947 45.1528 27.128V26.136C45.2381 23.5973 46.0274 21.6133 47.5208 20.184C49.0141 18.7547 51.0301 18.04 53.5688 18.04C55.4034 18.04 56.9501 18.4133 58.2088 19.16C59.4888 19.8853 60.4381 20.8987 61.0568 22.2C61.6968 23.48 62.0168 24.9413 62.0168 26.584V27.384C62.0168 27.6187 61.9314 27.8213 61.7608 27.992C61.6114 28.1413 61.4194 28.216 61.1848 28.216H51.0408V28.408C51.0621 29.368 51.2861 30.1467 51.7128 30.744C52.1394 31.32 52.7474 31.608 53.5368 31.608C54.0488 31.608 54.4541 31.512 54.7528 31.32C55.0728 31.1067 55.3714 30.84 55.6488 30.52C55.8408 30.3067 55.9901 30.1787 56.0968 30.136C56.2248 30.072 56.4168 30.04 56.6728 30.04H60.8647C61.0567 30.04 61.2168 30.104 61.3448 30.232C61.4941 30.3387 61.5688 30.4773 61.5688 30.648C61.5688 31.2027 61.2488 31.8533 60.6088 32.6C59.9901 33.3467 59.0728 33.9867 57.8568 34.52C56.6621 35.0533 55.2434 35.32 53.6008 35.32ZM56.1288 24.952V24.888C56.1288 23.864 55.9048 23.0747 55.4568 22.52C55.0088 21.944 54.3794 21.656 53.5688 21.656C52.7581 21.656 52.1288 21.944 51.6808 22.52C51.2541 23.0747 51.0408 23.864 51.0408 24.888V24.952H56.1288ZM72.6305 35.32C70.1985 35.32 68.2252 34.68 66.7105 33.4C65.2172 32.0987 64.4172 30.296 64.3105 27.992L64.2785 26.712L64.3105 25.4C64.3958 23.096 65.1958 21.2933 66.7105 19.992C68.2252 18.6907 70.1985 18.04 72.6305 18.04C74.4865 18.04 76.0438 18.3707 77.3025 19.032C78.5612 19.6933 79.4998 20.4827 80.1185 21.4C80.7372 22.296 81.0678 23.1173 81.1105 23.864C81.1318 24.0987 81.0572 24.3013 80.8865 24.472C80.7158 24.6213 80.5132 24.696 80.2785 24.696H75.9905C75.7558 24.696 75.5745 24.6427 75.4465 24.536C75.3185 24.4293 75.2012 24.2587 75.0945 24.024C74.8598 23.4267 74.5505 22.9893 74.1665 22.712C73.8038 22.4347 73.3345 22.296 72.7585 22.296C71.1158 22.296 70.2625 23.384 70.1985 25.56L70.1665 26.776L70.1985 27.832C70.2198 28.9413 70.4438 29.7627 70.8705 30.296C71.2972 30.808 71.9265 31.064 72.7585 31.064C73.3772 31.064 73.8572 30.936 74.1985 30.68C74.5612 30.4027 74.8598 29.9547 75.0945 29.336C75.2012 29.1013 75.3185 28.9307 75.4465 28.824C75.5745 28.7173 75.7558 28.664 75.9905 28.664H80.2785C80.4918 28.664 80.6838 28.7387 80.8545 28.888C81.0252 29.0373 81.1105 29.2187 81.1105 29.432C81.1105 30.0933 80.8118 30.8933 80.2145 31.832C79.6385 32.7493 78.7105 33.56 77.4305 34.264C76.1505 34.968 74.5505 35.32 72.6305 35.32ZM91.8553 35.32C89.1673 35.32 87.0979 34.7013 85.6473 33.464C84.2179 32.2053 83.4393 30.424 83.3113 28.12C83.2899 27.8427 83.2793 27.3627 83.2793 26.68C83.2793 25.9973 83.2899 25.5173 83.3113 25.24C83.4393 22.9787 84.2393 21.2187 85.7113 19.96C87.2046 18.68 89.2526 18.04 91.8553 18.04C94.4579 18.04 96.4953 18.68 97.9673 19.96C99.4606 21.2187 100.271 22.9787 100.399 25.24C100.442 25.7947 100.463 26.2747 100.463 26.68C100.463 27.0853 100.442 27.5653 100.399 28.12C100.271 30.424 99.4819 32.2053 98.0312 33.464C96.6019 34.7013 94.5433 35.32 91.8553 35.32ZM91.8553 31.288C92.7299 31.288 93.3806 31.0213 93.8073 30.488C94.2339 29.9333 94.4793 29.0907 94.5433 27.96C94.5646 27.7467 94.5753 27.32 94.5753 26.68C94.5753 26.04 94.5646 25.6133 94.5433 25.4C94.4793 24.2907 94.2339 23.4587 93.8073 22.904C93.3806 22.3493 92.7299 22.072 91.8553 22.072C90.9806 22.072 90.3299 22.3493 89.9033 22.904C89.4766 23.4587 89.2313 24.2907 89.1673 25.4L89.1353 26.68L89.1673 27.96C89.2313 29.0907 89.4766 29.9333 89.9033 30.488C90.3299 31.0213 90.9806 31.288 91.8553 31.288ZM104.312 16.056C104.077 16.056 103.885 15.9813 103.736 15.832C103.586 15.6613 103.512 15.4587 103.512 15.224V12.248C103.512 12.0133 103.586 11.8213 103.736 11.672C103.906 11.5013 104.098 11.416 104.312 11.416H108.312C108.546 11.416 108.738 11.5013 108.888 11.672C109.058 11.8213 109.144 12.0133 109.144 12.248V15.224C109.144 15.4587 109.058 15.6613 108.888 15.832C108.738 15.9813 108.546 16.056 108.312 16.056H104.312ZM104.312 35C104.098 35 103.906 34.9253 103.736 34.776C103.586 34.6053 103.512 34.4133 103.512 34.2V19.16C103.512 18.9253 103.586 18.7333 103.736 18.584C103.906 18.4347 104.098 18.36 104.312 18.36H108.312C108.546 18.36 108.738 18.4347 108.888 18.584C109.058 18.7333 109.144 18.9253 109.144 19.16V34.2C109.144 34.4347 109.058 34.6267 108.888 34.776C108.738 34.9253 108.546 35 108.312 35H104.312ZM113.593 35C113.379 35 113.187 34.9253 113.017 34.776C112.867 34.6053 112.793 34.4133 112.793 34.2V19.16C112.793 18.9253 112.867 18.7333 113.017 18.584C113.187 18.4347 113.379 18.36 113.593 18.36H117.529C117.763 18.36 117.955 18.4347 118.105 18.584C118.254 18.7333 118.329 18.9253 118.329 19.16V20.376C118.905 19.672 119.641 19.1067 120.537 18.68C121.454 18.2533 122.499 18.04 123.673 18.04C124.889 18.04 125.966 18.3173 126.905 18.872C127.865 19.4267 128.611 20.248 129.145 21.336C129.699 22.424 129.977 23.736 129.977 25.272V34.2C129.977 34.4133 129.902 34.6053 129.753 34.776C129.603 34.9253 129.411 35 129.177 35H124.921C124.686 35 124.483 34.9253 124.313 34.776C124.163 34.6267 124.089 34.4347 124.089 34.2V25.464C124.089 24.504 123.854 23.768 123.385 23.256C122.937 22.744 122.275 22.488 121.401 22.488C120.547 22.488 119.875 22.7547 119.385 23.288C118.894 23.8 118.649 24.5253 118.649 25.464V34.2C118.649 34.4133 118.574 34.6053 118.425 34.776C118.275 34.9253 118.083 35 117.849 35H113.593Z" fill="#0D0D2B"/>
<path d="M142.121 31C142.001 31 141.899 30.958 141.815 30.874C141.731 30.79 141.689 30.688 141.689 30.568V18.832C141.689 18.7 141.731 18.598 141.815 18.526C141.899 18.442 142.001 18.4 142.121 18.4H143.813C143.945 18.4 144.047 18.442 144.119 18.526C144.203 18.598 144.245 18.7 144.245 18.832V28.84H149.951C150.083 28.84 150.191 28.882 150.275 28.966C150.359 29.05 150.401 29.152 150.401 29.272V30.568C150.401 30.688 150.359 30.79 150.275 30.874C150.191 30.958 150.083 31 149.951 31H142.121ZM153.313 31C153.193 31 153.091 30.958 153.007 30.874C152.923 30.79 152.881 30.688 152.881 30.568V20.65H149.551C149.431 20.65 149.329 20.608 149.245 20.524C149.161 20.44 149.119 20.332 149.119 20.2V18.85C149.119 18.718 149.155 18.61 149.227 18.526C149.311 18.442 149.419 18.4 149.551 18.4H158.749C158.881 18.4 158.989 18.442 159.073 18.526C159.157 18.61 159.199 18.718 159.199 18.85V20.2C159.199 20.332 159.157 20.44 159.073 20.524C158.989 20.608 158.881 20.65 158.749 20.65H155.437V30.568C155.437 30.688 155.395 30.79 155.311 30.874C155.239 30.958 155.137 31 155.005 31H153.313ZM165.657 31.18C164.001 31.18 162.717 30.76 161.805 29.92C160.905 29.068 160.425 27.862 160.365 26.302C160.353 25.978 160.347 25.45 160.347 24.718C160.347 23.974 160.353 23.434 160.365 23.098C160.425 21.562 160.911 20.368 161.823 19.516C162.735 18.652 164.013 18.22 165.657 18.22C166.725 18.22 167.655 18.406 168.447 18.778C169.239 19.138 169.851 19.636 170.283 20.272C170.727 20.908 170.961 21.622 170.985 22.414V22.45C170.985 22.546 170.943 22.63 170.859 22.702C170.787 22.762 170.703 22.792 170.607 22.792H168.861C168.717 22.792 168.609 22.762 168.537 22.702C168.465 22.63 168.405 22.51 168.357 22.342C168.177 21.598 167.865 21.076 167.421 20.776C166.977 20.464 166.389 20.308 165.657 20.308C163.941 20.308 163.047 21.268 162.975 23.188C162.963 23.512 162.957 24.01 162.957 24.682C162.957 25.354 162.963 25.864 162.975 26.212C163.047 28.132 163.941 29.092 165.657 29.092C166.377 29.092 166.959 28.942 167.403 28.642C167.859 28.33 168.177 27.802 168.357 27.058C168.405 26.89 168.465 26.776 168.537 26.716C168.609 26.644 168.717 26.608 168.861 26.608H170.607C170.715 26.608 170.805 26.644 170.877 26.716C170.961 26.788 170.997 26.878 170.985 26.986C170.961 27.778 170.727 28.492 170.283 29.128C169.851 29.764 169.239 30.268 168.447 30.64C167.655 31 166.725 31.18 165.657 31.18Z" fill="#BDBDBD"/>
</svg>
